<mxfile host="app.diagrams.net" agent="Mozilla/5.0 (Macintosh; Intel Mac OS X 10_15_7) AppleWebKit/537.36 (KHTML, like Gecko) Chrome/141.0.0.0 Safari/537.36" version="28.2.7">
  <diagram name="Strona-1" id="uBdcJJ9UPjB0a-8DTV41">
    <mxGraphModel dx="1600" dy="1216" grid="1" gridSize="10" guides="1" tooltips="1" connect="1" arrows="1" fold="1" page="1" pageScale="1" pageWidth="827" pageHeight="1169" math="0" shadow="0">
      <root>
        <mxCell id="0" />
        <mxCell id="1" parent="0" />
        <mxCell id="hcEXH8i47duYdszlL1R1-9" style="edgeStyle=orthogonalEdgeStyle;rounded=0;orthogonalLoop=1;jettySize=auto;html=1;" edge="1" parent="1" source="hcEXH8i47duYdszlL1R1-3" target="hcEXH8i47duYdszlL1R1-7">
          <mxGeometry relative="1" as="geometry" />
        </mxCell>
        <mxCell id="hcEXH8i47duYdszlL1R1-26" style="edgeStyle=orthogonalEdgeStyle;rounded=0;orthogonalLoop=1;jettySize=auto;html=1;entryX=0.5;entryY=0;entryDx=0;entryDy=0;" edge="1" parent="1" source="hcEXH8i47duYdszlL1R1-3" target="hcEXH8i47duYdszlL1R1-25">
          <mxGeometry relative="1" as="geometry" />
        </mxCell>
        <mxCell id="hcEXH8i47duYdszlL1R1-3" value="" style="whiteSpace=wrap;html=1;aspect=fixed;rotation=45;fillColor=#6a00ff;fontColor=#ffffff;strokeColor=#3700CC;" vertex="1" parent="1">
          <mxGeometry x="519" y="490" width="80" height="80" as="geometry" />
        </mxCell>
        <mxCell id="hcEXH8i47duYdszlL1R1-6" value="&lt;font style=&quot;color: light-dark(rgb(0, 0, 0), rgb(0, 0, 0));&quot;&gt;Jeżeli a == 0&lt;/font&gt;" style="text;html=1;whiteSpace=wrap;align=center;verticalAlign=middle;rounded=0;" vertex="1" parent="1">
          <mxGeometry x="518" y="515" width="82" height="30" as="geometry" />
        </mxCell>
        <mxCell id="hcEXH8i47duYdszlL1R1-14" style="edgeStyle=orthogonalEdgeStyle;rounded=0;orthogonalLoop=1;jettySize=auto;html=1;entryX=0;entryY=0.5;entryDx=0;entryDy=0;" edge="1" parent="1" source="hcEXH8i47duYdszlL1R1-7" target="hcEXH8i47duYdszlL1R1-13">
          <mxGeometry relative="1" as="geometry" />
        </mxCell>
        <mxCell id="hcEXH8i47duYdszlL1R1-7" value="" style="whiteSpace=wrap;html=1;aspect=fixed;rotation=45;fillColor=#6a00ff;fontColor=#ffffff;strokeColor=#3700CC;" vertex="1" parent="1">
          <mxGeometry x="761.9985424949239" y="489.9985424949238" width="80" height="80" as="geometry" />
        </mxCell>
        <mxCell id="hcEXH8i47duYdszlL1R1-8" value="&lt;font style=&quot;color: light-dark(rgb(0, 0, 0), rgb(0, 0, 0));&quot;&gt;Jeżeli b == 0&lt;/font&gt;" style="text;html=1;whiteSpace=wrap;align=center;verticalAlign=middle;rounded=0;" vertex="1" parent="1">
          <mxGeometry x="760.9985424949239" y="514.9985424949239" width="82" height="30" as="geometry" />
        </mxCell>
        <mxCell id="hcEXH8i47duYdszlL1R1-22" style="edgeStyle=orthogonalEdgeStyle;rounded=0;orthogonalLoop=1;jettySize=auto;html=1;entryX=0.5;entryY=0;entryDx=0;entryDy=0;" edge="1" parent="1" source="hcEXH8i47duYdszlL1R1-11" target="hcEXH8i47duYdszlL1R1-21">
          <mxGeometry relative="1" as="geometry" />
        </mxCell>
        <mxCell id="hcEXH8i47duYdszlL1R1-11" value="Wypisz -&amp;gt; &#39;Nieskończenie wiele rozwiązań&#39;" style="rounded=0;whiteSpace=wrap;html=1;fillColor=#0050ef;fontColor=#ffffff;strokeColor=#001DBC;" vertex="1" parent="1">
          <mxGeometry x="721" y="640" width="156" height="60" as="geometry" />
        </mxCell>
        <mxCell id="hcEXH8i47duYdszlL1R1-12" style="edgeStyle=orthogonalEdgeStyle;rounded=0;orthogonalLoop=1;jettySize=auto;html=1;entryX=0.522;entryY=-0.003;entryDx=0;entryDy=0;entryPerimeter=0;" edge="1" parent="1" source="hcEXH8i47duYdszlL1R1-7" target="hcEXH8i47duYdszlL1R1-11">
          <mxGeometry relative="1" as="geometry" />
        </mxCell>
        <mxCell id="hcEXH8i47duYdszlL1R1-24" style="edgeStyle=orthogonalEdgeStyle;rounded=0;orthogonalLoop=1;jettySize=auto;html=1;entryX=0.5;entryY=0;entryDx=0;entryDy=0;" edge="1" parent="1" source="hcEXH8i47duYdszlL1R1-13" target="hcEXH8i47duYdszlL1R1-23">
          <mxGeometry relative="1" as="geometry" />
        </mxCell>
        <mxCell id="hcEXH8i47duYdszlL1R1-13" value="Wypisz -&amp;gt; &#39;Równanie sprzeczne&#39;" style="rounded=0;whiteSpace=wrap;html=1;fillColor=#0050ef;fontColor=#ffffff;strokeColor=#001DBC;" vertex="1" parent="1">
          <mxGeometry x="921" y="500" width="156" height="60" as="geometry" />
        </mxCell>
        <mxCell id="hcEXH8i47duYdszlL1R1-15" value="Prawda" style="text;html=1;whiteSpace=wrap;strokeColor=none;fillColor=none;align=center;verticalAlign=middle;rounded=0;" vertex="1" parent="1">
          <mxGeometry x="805" y="590" width="50" height="30" as="geometry" />
        </mxCell>
        <mxCell id="hcEXH8i47duYdszlL1R1-16" value="Fałsz" style="text;html=1;whiteSpace=wrap;strokeColor=none;fillColor=none;align=center;verticalAlign=middle;rounded=0;" vertex="1" parent="1">
          <mxGeometry x="851" y="490" width="50" height="30" as="geometry" />
        </mxCell>
        <mxCell id="hcEXH8i47duYdszlL1R1-18" style="edgeStyle=orthogonalEdgeStyle;rounded=0;orthogonalLoop=1;jettySize=auto;html=1;entryX=0;entryY=0;entryDx=0;entryDy=0;" edge="1" parent="1" source="hcEXH8i47duYdszlL1R1-17" target="hcEXH8i47duYdszlL1R1-3">
          <mxGeometry relative="1" as="geometry" />
        </mxCell>
        <mxCell id="hcEXH8i47duYdszlL1R1-17" value="Wczytaj(a, b)" style="shape=parallelogram;perimeter=parallelogramPerimeter;whiteSpace=wrap;html=1;fixedSize=1;fillColor=#fa6800;strokeColor=#C73500;fontColor=#000000;" vertex="1" parent="1">
          <mxGeometry x="480" y="350" width="158" height="60" as="geometry" />
        </mxCell>
        <mxCell id="hcEXH8i47duYdszlL1R1-20" style="edgeStyle=orthogonalEdgeStyle;rounded=0;orthogonalLoop=1;jettySize=auto;html=1;entryX=0.5;entryY=0;entryDx=0;entryDy=0;" edge="1" parent="1" source="hcEXH8i47duYdszlL1R1-19" target="hcEXH8i47duYdszlL1R1-17">
          <mxGeometry relative="1" as="geometry" />
        </mxCell>
        <mxCell id="hcEXH8i47duYdszlL1R1-19" value="&lt;font style=&quot;color: light-dark(rgb(0, 0, 0), rgb(11, 11, 11));&quot;&gt;Start&lt;/font&gt;" style="ellipse;whiteSpace=wrap;html=1;fillColor=light-dark(#E3C800,#FFFF99);fontColor=#000000;strokeColor=none;" vertex="1" parent="1">
          <mxGeometry x="499" y="220" width="120" height="80" as="geometry" />
        </mxCell>
        <mxCell id="hcEXH8i47duYdszlL1R1-21" value="&lt;font style=&quot;color: light-dark(rgb(0, 0, 0), rgb(11, 11, 11));&quot;&gt;Stop&lt;/font&gt;" style="ellipse;whiteSpace=wrap;html=1;fillColor=light-dark(#E3C800,#FFFF99);fontColor=#000000;strokeColor=none;" vertex="1" parent="1">
          <mxGeometry x="739" y="755" width="120" height="80" as="geometry" />
        </mxCell>
        <mxCell id="hcEXH8i47duYdszlL1R1-23" value="&lt;font style=&quot;color: light-dark(rgb(0, 0, 0), rgb(11, 11, 11));&quot;&gt;Stop&lt;/font&gt;" style="ellipse;whiteSpace=wrap;html=1;fillColor=light-dark(#E3C800,#FFFF99);fontColor=#000000;strokeColor=none;" vertex="1" parent="1">
          <mxGeometry x="939" y="610" width="120" height="80" as="geometry" />
        </mxCell>
        <mxCell id="hcEXH8i47duYdszlL1R1-25" value="Oblicz (x = -b/a)&lt;div&gt;Wypisz (x)&lt;/div&gt;" style="rounded=0;whiteSpace=wrap;html=1;fillColor=#0050ef;fontColor=#ffffff;strokeColor=#001DBC;" vertex="1" parent="1">
          <mxGeometry x="481" y="640" width="156" height="60" as="geometry" />
        </mxCell>
        <mxCell id="hcEXH8i47duYdszlL1R1-27" value="&lt;font style=&quot;color: light-dark(rgb(0, 0, 0), rgb(11, 11, 11));&quot;&gt;Stop&lt;/font&gt;" style="ellipse;whiteSpace=wrap;html=1;fillColor=light-dark(#E3C800,#FFFF99);fontColor=#000000;strokeColor=none;" vertex="1" parent="1">
          <mxGeometry x="501" y="750" width="120" height="80" as="geometry" />
        </mxCell>
        <mxCell id="hcEXH8i47duYdszlL1R1-30" style="edgeStyle=orthogonalEdgeStyle;rounded=0;orthogonalLoop=1;jettySize=auto;html=1;entryX=0.477;entryY=0.008;entryDx=0;entryDy=0;entryPerimeter=0;" edge="1" parent="1" source="hcEXH8i47duYdszlL1R1-25" target="hcEXH8i47duYdszlL1R1-27">
          <mxGeometry relative="1" as="geometry" />
        </mxCell>
        <mxCell id="hcEXH8i47duYdszlL1R1-31" value="Fałsz" style="text;html=1;whiteSpace=wrap;strokeColor=none;fillColor=none;align=center;verticalAlign=middle;rounded=0;" vertex="1" parent="1">
          <mxGeometry x="560" y="590" width="50" height="30" as="geometry" />
        </mxCell>
        <mxCell id="hcEXH8i47duYdszlL1R1-32" value="Prawda" style="text;html=1;whiteSpace=wrap;strokeColor=none;fillColor=none;align=center;verticalAlign=middle;rounded=0;" vertex="1" parent="1">
          <mxGeometry x="610" y="490" width="50" height="30" as="geometry" />
        </mxCell>
        <mxCell id="hcEXH8i47duYdszlL1R1-41" style="edgeStyle=orthogonalEdgeStyle;rounded=0;orthogonalLoop=1;jettySize=auto;html=1;entryX=0;entryY=0;entryDx=0;entryDy=0;" edge="1" parent="1" source="hcEXH8i47duYdszlL1R1-33" target="hcEXH8i47duYdszlL1R1-37">
          <mxGeometry relative="1" as="geometry" />
        </mxCell>
        <mxCell id="hcEXH8i47duYdszlL1R1-33" value="Wczytaj(a, b, c)" style="shape=parallelogram;perimeter=parallelogramPerimeter;whiteSpace=wrap;html=1;fixedSize=1;fillColor=#fa6800;strokeColor=#C73500;fontColor=#000000;" vertex="1" parent="1">
          <mxGeometry x="530" y="1290" width="158" height="60" as="geometry" />
        </mxCell>
        <mxCell id="hcEXH8i47duYdszlL1R1-34" style="edgeStyle=orthogonalEdgeStyle;rounded=0;orthogonalLoop=1;jettySize=auto;html=1;entryX=0.5;entryY=0;entryDx=0;entryDy=0;" edge="1" parent="1" source="hcEXH8i47duYdszlL1R1-35" target="hcEXH8i47duYdszlL1R1-33">
          <mxGeometry relative="1" as="geometry" />
        </mxCell>
        <mxCell id="hcEXH8i47duYdszlL1R1-35" value="&lt;font style=&quot;color: light-dark(rgb(0, 0, 0), rgb(11, 11, 11));&quot;&gt;Start&lt;/font&gt;" style="ellipse;whiteSpace=wrap;html=1;fillColor=light-dark(#E3C800,#FFFF99);fontColor=#000000;strokeColor=none;" vertex="1" parent="1">
          <mxGeometry x="549" y="1160" width="120" height="80" as="geometry" />
        </mxCell>
        <mxCell id="hcEXH8i47duYdszlL1R1-82" style="edgeStyle=orthogonalEdgeStyle;rounded=0;orthogonalLoop=1;jettySize=auto;html=1;entryX=0;entryY=1;entryDx=0;entryDy=0;" edge="1" parent="1" source="hcEXH8i47duYdszlL1R1-37" target="hcEXH8i47duYdszlL1R1-63">
          <mxGeometry relative="1" as="geometry" />
        </mxCell>
        <mxCell id="hcEXH8i47duYdszlL1R1-37" value="" style="whiteSpace=wrap;html=1;aspect=fixed;rotation=45;fillColor=#6a00ff;fontColor=#ffffff;strokeColor=#3700CC;" vertex="1" parent="1">
          <mxGeometry x="568.9985424949239" y="1439.9985424949239" width="80" height="80" as="geometry" />
        </mxCell>
        <mxCell id="hcEXH8i47duYdszlL1R1-38" value="&lt;font style=&quot;color: light-dark(rgb(0, 0, 0), rgb(0, 0, 0));&quot;&gt;Jeżeli a == 0&lt;/font&gt;" style="text;html=1;whiteSpace=wrap;align=center;verticalAlign=middle;rounded=0;" vertex="1" parent="1">
          <mxGeometry x="567.9985424949239" y="1464.9985424949239" width="82" height="30" as="geometry" />
        </mxCell>
        <mxCell id="hcEXH8i47duYdszlL1R1-39" value="Fałsz" style="text;html=1;whiteSpace=wrap;strokeColor=none;fillColor=none;align=center;verticalAlign=middle;rounded=0;" vertex="1" parent="1">
          <mxGeometry x="619" y="1540" width="50" height="30" as="geometry" />
        </mxCell>
        <mxCell id="hcEXH8i47duYdszlL1R1-40" value="Prawda" style="text;html=1;whiteSpace=wrap;strokeColor=none;fillColor=none;align=center;verticalAlign=middle;rounded=0;" vertex="1" parent="1">
          <mxGeometry x="669" y="1440" width="50" height="30" as="geometry" />
        </mxCell>
        <mxCell id="hcEXH8i47duYdszlL1R1-61" style="edgeStyle=orthogonalEdgeStyle;rounded=0;orthogonalLoop=1;jettySize=auto;html=1;" edge="1" parent="1" source="hcEXH8i47duYdszlL1R1-63" target="hcEXH8i47duYdszlL1R1-66">
          <mxGeometry relative="1" as="geometry" />
        </mxCell>
        <mxCell id="hcEXH8i47duYdszlL1R1-62" style="edgeStyle=orthogonalEdgeStyle;rounded=0;orthogonalLoop=1;jettySize=auto;html=1;entryX=0.5;entryY=0;entryDx=0;entryDy=0;" edge="1" parent="1" source="hcEXH8i47duYdszlL1R1-63" target="hcEXH8i47duYdszlL1R1-77">
          <mxGeometry relative="1" as="geometry" />
        </mxCell>
        <mxCell id="hcEXH8i47duYdszlL1R1-63" value="" style="whiteSpace=wrap;html=1;aspect=fixed;rotation=45;fillColor=#6a00ff;fontColor=#ffffff;strokeColor=#3700CC;" vertex="1" parent="1">
          <mxGeometry x="865" y="1440" width="80" height="80" as="geometry" />
        </mxCell>
        <mxCell id="hcEXH8i47duYdszlL1R1-64" value="&lt;font style=&quot;color: light-dark(rgb(0, 0, 0), rgb(0, 0, 0));&quot;&gt;Jeżeli b == 0&lt;/font&gt;" style="text;html=1;whiteSpace=wrap;align=center;verticalAlign=middle;rounded=0;" vertex="1" parent="1">
          <mxGeometry x="864" y="1465" width="82" height="30" as="geometry" />
        </mxCell>
        <mxCell id="hcEXH8i47duYdszlL1R1-65" style="edgeStyle=orthogonalEdgeStyle;rounded=0;orthogonalLoop=1;jettySize=auto;html=1;entryX=0;entryY=0.5;entryDx=0;entryDy=0;" edge="1" parent="1" source="hcEXH8i47duYdszlL1R1-66" target="hcEXH8i47duYdszlL1R1-72">
          <mxGeometry relative="1" as="geometry" />
        </mxCell>
        <mxCell id="hcEXH8i47duYdszlL1R1-66" value="" style="whiteSpace=wrap;html=1;aspect=fixed;rotation=45;fillColor=#6a00ff;fontColor=#ffffff;strokeColor=#3700CC;" vertex="1" parent="1">
          <mxGeometry x="1107.9985424949239" y="1439.9985424949239" width="80" height="80" as="geometry" />
        </mxCell>
        <mxCell id="hcEXH8i47duYdszlL1R1-67" value="&lt;font style=&quot;color: light-dark(rgb(0, 0, 0), rgb(0, 0, 0));&quot;&gt;Jeżeli c == 0&lt;/font&gt;" style="text;html=1;whiteSpace=wrap;align=center;verticalAlign=middle;rounded=0;" vertex="1" parent="1">
          <mxGeometry x="1106.9985424949239" y="1464.9985424949239" width="82" height="30" as="geometry" />
        </mxCell>
        <mxCell id="hcEXH8i47duYdszlL1R1-68" style="edgeStyle=orthogonalEdgeStyle;rounded=0;orthogonalLoop=1;jettySize=auto;html=1;entryX=0.5;entryY=0;entryDx=0;entryDy=0;" edge="1" parent="1" source="hcEXH8i47duYdszlL1R1-69" target="hcEXH8i47duYdszlL1R1-75">
          <mxGeometry relative="1" as="geometry" />
        </mxCell>
        <mxCell id="hcEXH8i47duYdszlL1R1-69" value="Wypisz -&amp;gt; &#39;Nieskończenie wiele rozwiązań&#39;" style="rounded=0;whiteSpace=wrap;html=1;fillColor=#0050ef;fontColor=#ffffff;strokeColor=#001DBC;" vertex="1" parent="1">
          <mxGeometry x="1067" y="1590" width="156" height="60" as="geometry" />
        </mxCell>
        <mxCell id="hcEXH8i47duYdszlL1R1-70" style="edgeStyle=orthogonalEdgeStyle;rounded=0;orthogonalLoop=1;jettySize=auto;html=1;entryX=0.522;entryY=-0.003;entryDx=0;entryDy=0;entryPerimeter=0;" edge="1" parent="1" source="hcEXH8i47duYdszlL1R1-66" target="hcEXH8i47duYdszlL1R1-69">
          <mxGeometry relative="1" as="geometry" />
        </mxCell>
        <mxCell id="hcEXH8i47duYdszlL1R1-71" style="edgeStyle=orthogonalEdgeStyle;rounded=0;orthogonalLoop=1;jettySize=auto;html=1;entryX=0.5;entryY=0;entryDx=0;entryDy=0;" edge="1" parent="1" source="hcEXH8i47duYdszlL1R1-72" target="hcEXH8i47duYdszlL1R1-76">
          <mxGeometry relative="1" as="geometry" />
        </mxCell>
        <mxCell id="hcEXH8i47duYdszlL1R1-72" value="Wypisz -&amp;gt; &#39;Równanie sprzeczne&#39;" style="rounded=0;whiteSpace=wrap;html=1;fillColor=#0050ef;fontColor=#ffffff;strokeColor=#001DBC;" vertex="1" parent="1">
          <mxGeometry x="1267" y="1450" width="156" height="60" as="geometry" />
        </mxCell>
        <mxCell id="hcEXH8i47duYdszlL1R1-73" value="Prawda" style="text;html=1;whiteSpace=wrap;strokeColor=none;fillColor=none;align=center;verticalAlign=middle;rounded=0;" vertex="1" parent="1">
          <mxGeometry x="1151" y="1540" width="50" height="30" as="geometry" />
        </mxCell>
        <mxCell id="hcEXH8i47duYdszlL1R1-74" value="Fałsz" style="text;html=1;whiteSpace=wrap;strokeColor=none;fillColor=none;align=center;verticalAlign=middle;rounded=0;" vertex="1" parent="1">
          <mxGeometry x="1197" y="1440" width="50" height="30" as="geometry" />
        </mxCell>
        <mxCell id="hcEXH8i47duYdszlL1R1-75" value="&lt;font style=&quot;color: light-dark(rgb(0, 0, 0), rgb(11, 11, 11));&quot;&gt;Stop&lt;/font&gt;" style="ellipse;whiteSpace=wrap;html=1;fillColor=light-dark(#E3C800,#FFFF99);fontColor=#000000;strokeColor=none;" vertex="1" parent="1">
          <mxGeometry x="1085" y="1705" width="120" height="80" as="geometry" />
        </mxCell>
        <mxCell id="hcEXH8i47duYdszlL1R1-76" value="&lt;font style=&quot;color: light-dark(rgb(0, 0, 0), rgb(11, 11, 11));&quot;&gt;Stop&lt;/font&gt;" style="ellipse;whiteSpace=wrap;html=1;fillColor=light-dark(#E3C800,#FFFF99);fontColor=#000000;strokeColor=none;" vertex="1" parent="1">
          <mxGeometry x="1285" y="1560" width="120" height="80" as="geometry" />
        </mxCell>
        <mxCell id="hcEXH8i47duYdszlL1R1-77" value="Oblicz (x = -c/b)&lt;div&gt;Wypisz (x)&lt;/div&gt;" style="rounded=0;whiteSpace=wrap;html=1;fillColor=#0050ef;fontColor=#ffffff;strokeColor=#001DBC;" vertex="1" parent="1">
          <mxGeometry x="827" y="1590" width="156" height="60" as="geometry" />
        </mxCell>
        <mxCell id="hcEXH8i47duYdszlL1R1-78" value="&lt;font style=&quot;color: light-dark(rgb(0, 0, 0), rgb(11, 11, 11));&quot;&gt;Stop&lt;/font&gt;" style="ellipse;whiteSpace=wrap;html=1;fillColor=light-dark(#E3C800,#FFFF99);fontColor=#000000;strokeColor=none;" vertex="1" parent="1">
          <mxGeometry x="847" y="1700" width="120" height="80" as="geometry" />
        </mxCell>
        <mxCell id="hcEXH8i47duYdszlL1R1-79" style="edgeStyle=orthogonalEdgeStyle;rounded=0;orthogonalLoop=1;jettySize=auto;html=1;entryX=0.477;entryY=0.008;entryDx=0;entryDy=0;entryPerimeter=0;" edge="1" parent="1" source="hcEXH8i47duYdszlL1R1-77" target="hcEXH8i47duYdszlL1R1-78">
          <mxGeometry relative="1" as="geometry" />
        </mxCell>
        <mxCell id="hcEXH8i47duYdszlL1R1-80" value="Fałsz" style="text;html=1;whiteSpace=wrap;strokeColor=none;fillColor=none;align=center;verticalAlign=middle;rounded=0;" vertex="1" parent="1">
          <mxGeometry x="906" y="1540" width="50" height="30" as="geometry" />
        </mxCell>
        <mxCell id="hcEXH8i47duYdszlL1R1-81" value="Prawda" style="text;html=1;whiteSpace=wrap;strokeColor=none;fillColor=none;align=center;verticalAlign=middle;rounded=0;" vertex="1" parent="1">
          <mxGeometry x="956" y="1440" width="50" height="30" as="geometry" />
        </mxCell>
        <mxCell id="hcEXH8i47duYdszlL1R1-88" style="edgeStyle=orthogonalEdgeStyle;rounded=0;orthogonalLoop=1;jettySize=auto;html=1;entryX=0;entryY=0;entryDx=0;entryDy=0;" edge="1" parent="1" source="hcEXH8i47duYdszlL1R1-83" target="hcEXH8i47duYdszlL1R1-86">
          <mxGeometry relative="1" as="geometry" />
        </mxCell>
        <mxCell id="hcEXH8i47duYdszlL1R1-83" value="Oblicz (delta = b**2 - 4 * a * c)" style="rounded=0;whiteSpace=wrap;html=1;fillColor=#0050ef;fontColor=#ffffff;strokeColor=#001DBC;" vertex="1" parent="1">
          <mxGeometry x="520" y="1590" width="186" height="60" as="geometry" />
        </mxCell>
        <mxCell id="hcEXH8i47duYdszlL1R1-85" style="edgeStyle=orthogonalEdgeStyle;rounded=0;orthogonalLoop=1;jettySize=auto;html=1;entryX=0.48;entryY=-0.014;entryDx=0;entryDy=0;entryPerimeter=0;" edge="1" parent="1" source="hcEXH8i47duYdszlL1R1-37" target="hcEXH8i47duYdszlL1R1-83">
          <mxGeometry relative="1" as="geometry" />
        </mxCell>
        <mxCell id="hcEXH8i47duYdszlL1R1-93" style="edgeStyle=orthogonalEdgeStyle;rounded=0;orthogonalLoop=1;jettySize=auto;html=1;entryX=0;entryY=0.5;entryDx=0;entryDy=0;" edge="1" parent="1" source="hcEXH8i47duYdszlL1R1-86" target="hcEXH8i47duYdszlL1R1-90">
          <mxGeometry relative="1" as="geometry" />
        </mxCell>
        <mxCell id="hcEXH8i47duYdszlL1R1-99" style="edgeStyle=orthogonalEdgeStyle;rounded=0;orthogonalLoop=1;jettySize=auto;html=1;entryX=0;entryY=0;entryDx=0;entryDy=0;" edge="1" parent="1" source="hcEXH8i47duYdszlL1R1-86" target="hcEXH8i47duYdszlL1R1-94">
          <mxGeometry relative="1" as="geometry" />
        </mxCell>
        <mxCell id="hcEXH8i47duYdszlL1R1-86" value="" style="whiteSpace=wrap;html=1;aspect=fixed;rotation=45;fillColor=#6a00ff;fontColor=#ffffff;strokeColor=#3700CC;" vertex="1" parent="1">
          <mxGeometry x="572.9985424949239" y="1839.9985424949239" width="80" height="80" as="geometry" />
        </mxCell>
        <mxCell id="hcEXH8i47duYdszlL1R1-87" value="&lt;font style=&quot;color: light-dark(rgb(0, 0, 0), rgb(0, 0, 0));&quot;&gt;Jeżeli delta &amp;lt; 0&lt;/font&gt;" style="text;html=1;whiteSpace=wrap;align=center;verticalAlign=middle;rounded=0;" vertex="1" parent="1">
          <mxGeometry x="570" y="1865" width="85" height="30" as="geometry" />
        </mxCell>
        <mxCell id="hcEXH8i47duYdszlL1R1-92" style="edgeStyle=orthogonalEdgeStyle;rounded=0;orthogonalLoop=1;jettySize=auto;html=1;entryX=0.5;entryY=0;entryDx=0;entryDy=0;" edge="1" parent="1" source="hcEXH8i47duYdszlL1R1-90" target="hcEXH8i47duYdszlL1R1-91">
          <mxGeometry relative="1" as="geometry" />
        </mxCell>
        <mxCell id="hcEXH8i47duYdszlL1R1-90" value="Wypisz -&amp;gt; &#39;Brak rozwiązań&#39;" style="rounded=0;whiteSpace=wrap;html=1;fillColor=#0050ef;fontColor=#ffffff;strokeColor=#001DBC;" vertex="1" parent="1">
          <mxGeometry x="812" y="1850" width="186" height="60" as="geometry" />
        </mxCell>
        <mxCell id="hcEXH8i47duYdszlL1R1-91" value="&lt;font style=&quot;color: light-dark(rgb(0, 0, 0), rgb(11, 11, 11));&quot;&gt;Stop&lt;/font&gt;" style="ellipse;whiteSpace=wrap;html=1;fillColor=light-dark(#E3C800,#FFFF99);fontColor=#000000;strokeColor=none;" vertex="1" parent="1">
          <mxGeometry x="845" y="1960" width="120" height="80" as="geometry" />
        </mxCell>
        <mxCell id="hcEXH8i47duYdszlL1R1-105" style="edgeStyle=orthogonalEdgeStyle;rounded=0;orthogonalLoop=1;jettySize=auto;html=1;entryX=1;entryY=0.5;entryDx=0;entryDy=0;" edge="1" parent="1" source="hcEXH8i47duYdszlL1R1-94" target="hcEXH8i47duYdszlL1R1-104">
          <mxGeometry relative="1" as="geometry" />
        </mxCell>
        <mxCell id="hcEXH8i47duYdszlL1R1-94" value="" style="whiteSpace=wrap;html=1;aspect=fixed;rotation=45;fillColor=#6a00ff;fontColor=#ffffff;strokeColor=#3700CC;" vertex="1" parent="1">
          <mxGeometry x="572.9985424949238" y="2029.9985424949239" width="80" height="80" as="geometry" />
        </mxCell>
        <mxCell id="hcEXH8i47duYdszlL1R1-95" value="&lt;font style=&quot;color: light-dark(rgb(0, 0, 0), rgb(0, 0, 0));&quot;&gt;Jeżeli delta &amp;gt; 0&lt;/font&gt;" style="text;html=1;whiteSpace=wrap;align=center;verticalAlign=middle;rounded=0;" vertex="1" parent="1">
          <mxGeometry x="569.9999999999999" y="2055" width="85" height="30" as="geometry" />
        </mxCell>
        <mxCell id="hcEXH8i47duYdszlL1R1-108" style="edgeStyle=orthogonalEdgeStyle;rounded=0;orthogonalLoop=1;jettySize=auto;html=1;entryX=0.5;entryY=0;entryDx=0;entryDy=0;" edge="1" parent="1" source="hcEXH8i47duYdszlL1R1-96" target="hcEXH8i47duYdszlL1R1-102">
          <mxGeometry relative="1" as="geometry" />
        </mxCell>
        <mxCell id="hcEXH8i47duYdszlL1R1-96" value="&lt;div&gt;Oblicz(x1 i x2)&lt;/div&gt;x1 = (-b - math.sqrt(delta)) / (2 * a)&lt;div&gt;x1 = (-b + math.sqrt(delta)) / (2 * a)&lt;/div&gt;&lt;div&gt;Wypisz(x1 i x2)&lt;/div&gt;" style="rounded=0;whiteSpace=wrap;html=1;fillColor=#0050ef;fontColor=#ffffff;strokeColor=#001DBC;" vertex="1" parent="1">
          <mxGeometry x="520" y="2190" width="195.5" height="80" as="geometry" />
        </mxCell>
        <mxCell id="hcEXH8i47duYdszlL1R1-97" value="Fałsz" style="text;html=1;whiteSpace=wrap;strokeColor=none;fillColor=none;align=center;verticalAlign=middle;rounded=0;" vertex="1" parent="1">
          <mxGeometry x="621" y="1940" width="50" height="30" as="geometry" />
        </mxCell>
        <mxCell id="hcEXH8i47duYdszlL1R1-98" value="Prawda" style="text;html=1;whiteSpace=wrap;strokeColor=none;fillColor=none;align=center;verticalAlign=middle;rounded=0;" vertex="1" parent="1">
          <mxGeometry x="671" y="1840" width="50" height="30" as="geometry" />
        </mxCell>
        <mxCell id="hcEXH8i47duYdszlL1R1-100" style="edgeStyle=orthogonalEdgeStyle;rounded=0;orthogonalLoop=1;jettySize=auto;html=1;entryX=0.476;entryY=0.033;entryDx=0;entryDy=0;entryPerimeter=0;" edge="1" parent="1" source="hcEXH8i47duYdszlL1R1-94" target="hcEXH8i47duYdszlL1R1-96">
          <mxGeometry relative="1" as="geometry" />
        </mxCell>
        <mxCell id="hcEXH8i47duYdszlL1R1-101" value="Prawda" style="text;html=1;whiteSpace=wrap;strokeColor=none;fillColor=none;align=center;verticalAlign=middle;rounded=0;" vertex="1" parent="1">
          <mxGeometry x="619" y="2120" width="50" height="30" as="geometry" />
        </mxCell>
        <mxCell id="hcEXH8i47duYdszlL1R1-102" value="&lt;font style=&quot;color: light-dark(rgb(0, 0, 0), rgb(11, 11, 11));&quot;&gt;Stop&lt;/font&gt;" style="ellipse;whiteSpace=wrap;html=1;fillColor=light-dark(#E3C800,#FFFF99);fontColor=#000000;strokeColor=none;" vertex="1" parent="1">
          <mxGeometry x="557.75" y="2330" width="120" height="80" as="geometry" />
        </mxCell>
        <mxCell id="hcEXH8i47duYdszlL1R1-107" style="edgeStyle=orthogonalEdgeStyle;rounded=0;orthogonalLoop=1;jettySize=auto;html=1;entryX=0.5;entryY=0;entryDx=0;entryDy=0;" edge="1" parent="1" source="hcEXH8i47duYdszlL1R1-104" target="hcEXH8i47duYdszlL1R1-106">
          <mxGeometry relative="1" as="geometry" />
        </mxCell>
        <mxCell id="hcEXH8i47duYdszlL1R1-104" value="&lt;div&gt;Oblicz(x)&lt;/div&gt;x = -b / (2 * a)&lt;br&gt;&lt;div&gt;Wypisz(x)&lt;/div&gt;" style="rounded=0;whiteSpace=wrap;html=1;fillColor=#0050ef;fontColor=#ffffff;strokeColor=#001DBC;" vertex="1" parent="1">
          <mxGeometry x="260" y="2030" width="195.5" height="80" as="geometry" />
        </mxCell>
        <mxCell id="hcEXH8i47duYdszlL1R1-106" value="&lt;font style=&quot;color: light-dark(rgb(0, 0, 0), rgb(11, 11, 11));&quot;&gt;Stop&lt;/font&gt;" style="ellipse;whiteSpace=wrap;html=1;fillColor=light-dark(#E3C800,#FFFF99);fontColor=#000000;strokeColor=none;" vertex="1" parent="1">
          <mxGeometry x="297.75" y="2170" width="120" height="80" as="geometry" />
        </mxCell>
        <mxCell id="hcEXH8i47duYdszlL1R1-109" value="Fałsz" style="text;html=1;whiteSpace=wrap;strokeColor=none;fillColor=none;align=center;verticalAlign=middle;rounded=0;" vertex="1" parent="1">
          <mxGeometry x="507.75" y="2070" width="50" height="30" as="geometry" />
        </mxCell>
      </root>
    </mxGraphModel>
  </diagram>
</mxfile>
